<?xml version="1.0" encoding="UTF-8"?>
<!DOCTYPE svg PUBLIC "-//W3C//DTD SVG 1.1//EN" "http://www.w3.org/Graphics/SVG/1.1/DTD/svg11.dtd">
<!-- Creator: CorelDRAW 2020 (64-Bit) -->
<svg xmlns="http://www.w3.org/2000/svg" xml:space="preserve" width="3708px" height="475px" version="1.1" style="shape-rendering:geometricPrecision; text-rendering:geometricPrecision; image-rendering:optimizeQuality; fill-rule:evenodd; clip-rule:evenodd"
viewBox="0 0 3708 475"
 xmlns:xlink="http://www.w3.org/1999/xlink"
 xmlns:xodm="http://www.corel.com/coreldraw/odm/2003">
 <defs>
  <style type="text/css">
   <![CDATA[
    .fil0 {fill:#7588E1}
   ]]>
  </style>
 </defs>
 <g id="Layer_x0020_1">
  <metadata id="CorelCorpID_0Corel-Layer"/>
  <path class="fil0" d="M0 476l3708 0 0 -8 0 -365 0 -42c-142,-30 -306,-45 -459,-53 -281,-15 -525,-5 -673,9 -148,14 -199,31 -278,52 -79,21 -185,45 -258,56 -72,11 -111,8 -190,-12 -79,-20 -197,-56 -294,-78 -97,-22 -173,-28 -246,-26 -73,3 -143,14 -363,93 -220,79 -589,226 -788,306 -72,29 -122,49 -160,67z"/>
 </g>
</svg>
