<?xml version="1.0" encoding="UTF-8"?>
<!DOCTYPE svg PUBLIC "-//W3C//DTD SVG 1.1//EN" "http://www.w3.org/Graphics/SVG/1.1/DTD/svg11.dtd">
<!-- Creator: CorelDRAW 2020 (64-Bit) -->
<svg xmlns="http://www.w3.org/2000/svg" xml:space="preserve" width="3833px" height="519px" version="1.1" style="shape-rendering:geometricPrecision; text-rendering:geometricPrecision; image-rendering:optimizeQuality; fill-rule:evenodd; clip-rule:evenodd"
viewBox="0 0 3833 519"
 xmlns:xlink="http://www.w3.org/1999/xlink"
 xmlns:xodm="http://www.corel.com/coreldraw/odm/2003">
 <defs>
  <style type="text/css">
   <![CDATA[
    .fil0 {fill:#4557E0}
   ]]>
  </style>
 </defs>
 <g id="Layer_x0020_1">
  <metadata id="CorelCorpID_0Corel-Layer"/>
  <path class="fil0" d="M0 44l0 475 3833 0 0 -365c-28,-24 -57,-42 -83,-56 -57,-32 -102,-50 -146,-61 -43,-11 -85,-14 -162,-10 -77,4 -188,16 -338,42 -150,26 -337,67 -492,87 -155,20 -279,19 -396,16 -117,-4 -228,-10 -360,-23 -132,-12 -284,-31 -459,-57 -175,-26 -371,-59 -552,-76 -181,-17 -347,-18 -518,-8 -112,7 -227,18 -327,37z"/>
 </g>
</svg>
