<?xml version="1.0" encoding="UTF-8"?>
<!DOCTYPE svg PUBLIC "-//W3C//DTD SVG 1.1//EN" "http://www.w3.org/Graphics/SVG/1.1/DTD/svg11.dtd">
<!-- Creator: CorelDRAW 2020 (64-Bit) -->
<svg xmlns="http://www.w3.org/2000/svg" xml:space="preserve" width="1717px" height="1330px" version="1.1" style="shape-rendering:geometricPrecision; text-rendering:geometricPrecision; image-rendering:optimizeQuality; fill-rule:evenodd; clip-rule:evenodd"
viewBox="0 0 1717 1331"
 xmlns:xlink="http://www.w3.org/1999/xlink"
 xmlns:xodm="http://www.corel.com/coreldraw/odm/2003">
 <defs>
  <style type="text/css">
   <![CDATA[
    .fil1 {fill:none}
    .fil0 {fill:#373435}
    .fil37 {fill:#130210}
    .fil36 {fill:#231C4B}
    .fil2 {fill:#2D0F3A}
    .fil34 {fill:#313E88}
    .fil12 {fill:#3D3673}
    .fil24 {fill:#3E2734}
    .fil35 {fill:#3F386D}
    .fil16 {fill:#431F38}
    .fil5 {fill:#454087}
    .fil4 {fill:#462956}
    .fil23 {fill:#4A2943}
    .fil22 {fill:#4E427B}
    .fil29 {fill:#512039}
    .fil7 {fill:#542636}
    .fil32 {fill:#623F7A}
    .fil30 {fill:#634773}
    .fil13 {fill:#654674}
    .fil6 {fill:#664678}
    .fil14 {fill:#682824}
    .fil27 {fill:#6A2A21}
    .fil26 {fill:#6D5493}
    .fil20 {fill:#6F70A1}
    .fil31 {fill:#715EB1}
    .fil8 {fill:#7A4455}
    .fil15 {fill:#7E6B97}
    .fil17 {fill:#8271C4}
    .fil3 {fill:#966692}
    .fil18 {fill:#967EC4}
    .fil33 {fill:#A2A3DE}
    .fil9 {fill:#A85547}
    .fil10 {fill:#A95647}
    .fil11 {fill:#D47847}
    .fil21 {fill:#F4A170}
    .fil28 {fill:#FAAC00}
    .fil25 {fill:url(#id0)}
    .fil19 {fill:url(#id1)}
   ]]>
  </style>
  <linearGradient id="id0" gradientUnits="userSpaceOnUse" x1="823" y1="562" x2="894" y2="5">
   <stop offset="0" style="stop-opacity:1; stop-color:#9B88D9"/>
   <stop offset="1" style="stop-opacity:1; stop-color:#AAC7DE"/>
  </linearGradient>
  <linearGradient id="id1" gradientUnits="userSpaceOnUse" x1="512" y1="730" x2="519" y2="529">
   <stop offset="0" style="stop-opacity:1; stop-color:#9C95DA"/>
   <stop offset="1" style="stop-opacity:1; stop-color:#C2C7DD"/>
  </linearGradient>
 </defs>
 <g id="Layer_x0020_1">
  <metadata id="CorelCorpID_0Corel-Layer"/>
  <path class="fil0" d="M479 760l21 312 -407 17 -16 -318 402 -11zm706 56l4 118 99 0 6 -116 -110 -2zm-429 -367l-41 -119 -50 121 92 -2zm434 165l116 -1 2 -93 -122 -2 4 96zm-346 200l1 49 116 1 1 -43 -118 -8zm-182 -46l-120 8 5 96 114 1 1 -104zm-363 357l79 8 1 0 -19 30 0 3 -90 -8 30 -41 8 -1 -8 8 -1 1zm764 22l510 -34 8 97 -518 -30 -1 -33zm-631 -4l260 22 4 41 -326 21 73 -98 -10 14zm-208 81l92 8 -102 7 11 -15zm-34 49l99 7 -18 30 9 1 28 0 20 -27 340 47 1049 -98 -65 -15 -39 -4 6 -103 45 -3 5 -21 -226 -8 26 -473 76 0 8 -19 -51 -26 -238 -558 -11 -3 -528 81 -91 170 -126 235 -43 80 -464 164 0 28 4 16 47 -1 23 318 -75 3 5 16 135 10 0 2 24 118 -137 13 129 12 -19 32 6 1 30 0 19 -25zm549 -104l298 -20 4 30 -304 24 3 -34zm-480 11l86 7 -15 25 -90 -7 19 -25zm-78 -57l55 4 -52 88 0 -3 -3 -90z"/>
  <polygon class="fil1" points="1,730 464,566 1031,529 612,706 "/>
  <polygon class="fil1" points="1,730 1,758 612,739 612,706 "/>
  <polygon class="fil1" points="1031,529 1031,543 612,739 612,706 "/>
  <polygon class="fil1" points="612,739 638,756 1047,553 1258,26 1493,573 1544,607 1552,588 1501,561 1264,4 1252,1 1031,536 1031,543 "/>
  <polygon class="fil1" points="719,187 577,490 602,491 726,214 822,498 843,498 740,187 "/>
  <polygon class="fil1" points="602,491 619,486 731,230 726,214 "/>
  <polygon class="fil1" points="756,449 777,449 724,305 715,330 "/>
  <polygon class="fil1" points="740,187 950,241 843,498 "/>
  <polygon class="fil1" points="577,490 507,486 633,251 705,218 "/>
  <polygon class="fil1" points="1,758 5,774 638,756 612,739 "/>
  <polygon class="fil1" points="52,772 75,1099 94,1100 77,772 "/>
  <polygon class="fil1" points="713,1129 699,1129 695,728 713,718 "/>
  <polygon class="fil1" points="699,1129 690,1129 687,731 695,728 "/>
  <path class="fil1" d="M1012 570l27 523 16 0 -13 -353 398 -5 -21 356 23 1 27 -488 -20 -26 -8 136 -398 4c-3,-53 -4,-106 -7,-159l-24 12z"/>
  <polygon class="fil1" points="1448,577 1448,576 1452,531 1469,575 1468,603 "/>
  <polygon class="fil1" points="1544,607 1544,607 1468,607 1469,575 1452,531 1242,65 1258,26 1493,573 1544,607 "/>
  <polygon class="fil1" points="1448,577 1185,210 1242,65 1452,531 "/>
  <polygon class="fil1" points="1166,404 1325,407 1320,623 1354,624 1348,638 1161,639 1156,626 1176,626 "/>
  <polygon class="fil1" points="1182,415 1310,416 1306,614 1190,614 "/>
  <polygon class="fil1" points="1184,455 1309,453 1309,460 1184,463 "/>
  <polygon class="fil1" points="1166,639 1173,662 1329,658 1334,638 "/>
  <polygon class="fil1" points="1182,415 1184,455 1309,453 1310,416 "/>
  <polygon class="fil1" points="1184,463 1186,518 1308,520 1309,460 "/>
  <polygon class="fil1" points="1186,518 1190,614 1306,614 1308,520 "/>
  <polygon class="fil1" points="1309,1092 1322,791 1333,791 1320,1092 "/>
  <polygon class="fil1" points="1166,1094 1157,772 1145,772 1155,1094 "/>
  <polygon class="fil1" points="832,663 970,658 971,871 838,874 "/>
  <polygon class="fil1" points="962,666 962,726 842,726 840,669 "/>
  <polygon class="fil1" points="842,735 845,815 963,822 963,737 "/>
  <polygon class="fil1" points="845,815 846,864 962,865 963,822 "/>
  <polygon class="fil1" points="532,759 539,880 669,881 672,739 663,744 661,873 547,873 541,758 "/>
  <polygon class="fil1" points="663,744 662,769 542,777 541,758 638,756 "/>
  <polygon class="fil1" points="662,769 661,873 547,873 542,777 "/>
  <polygon class="fil1" points="479,760 502,1094 514,1093 497,760 "/>
  <polygon class="fil1" points="500,1072 93,1089 94,1100 75,1099 75,1091 -1,1094 354,1123 690,1106 690,1129 713,1129 713,1105 938,1096 713,1091 713,1129 690,1129 690,1093 514,1093 502,1094 "/>
  <polygon class="fil1" points="354,1123 740,1153 1667,1088 1442,1080 1441,1091 1335,1091 1155,1094 1039,1093 938,1096 713,1105 713,1129 690,1129 690,1106 "/>
  <polygon class="fil1" points="1667,1088 1662,1108 739,1169 740,1153 "/>
  <polygon class="fil1" points="739,1169 432,1144 442,1129 400,1126 279,1311 270,1310 373,1138 293,1132 304,1119 260,1115 140,1299 135,1298 236,1127 4,1110 -1,1094 260,1115 400,1126 740,1153 "/>
  <polygon class="fil2" points="140,1299 260,1115 -1,1094 4,1110 236,1127 135,1298 "/>
  <polygon class="fil2" points="293,1132 373,1138 270,1310 279,1311 400,1126 354,1123 304,1119 "/>
  <polygon class="fil2" points="442,1129 432,1144 739,1169 740,1153 "/>
  <path class="fil3" d="M442 1129l298 23 0 0 927 -65 -226 -8 -1 11 -105 0 -16 0 -11 0 -143 2 -11 0 -116 -1 -101 3 -225 9 0 24 -14 1 -9 0 0 0 0 -23 -335 17 45 4 42 3zm-42 -3l42 3 -42 -3z"/>
  <polygon class="fil4" points="355,1122 690,1106 690,1093 514,1093 502,1094 500,1072 93,1089 94,1100 75,1099 75,1091 -1,1094 260,1115 260,1115 "/>
  <polygon class="fil5" points="1667,1088 740,1153 739,1169 1662,1108 "/>
  <path class="fil6" d="M1440 735l-21 356 23 1 1 -11 26 -473 0 -4 -20 -26 -8 136 -398 4c-3,-53 -4,-106 -7,-159l-24 12 27 523 16 0 -13 -353 398 -5z"/>
  <polygon class="fil7" points="1320,1092 1333,791 1322,791 1309,1092 "/>
  <path class="fil8" d="M1333 791l-13 301 16 0 13 -320 -191 1 9 322 143 -2 13 -301 11 0zm-38 28l-6 116 -99 0 -4 -118 110 2z"/>
  <polygon class="fil7" points="1166,1094 1157,772 1145,772 1155,1094 "/>
  <polygon class="fil9" points="845,815 963,822 963,737 842,735 "/>
  <polygon class="fil10" points="842,726 962,726 962,666 840,669 "/>
  <path class="fil7" d="M962 726l-120 0 -1 -56 122 -3 0 60zm8 -68l-138 5 6 211 134 -3 -1 -213zm-128 76l121 2 0 86 -1 43 -116 -1 -1 -49 -2 -80z"/>
  <polygon class="fil11" points="542,777 662,769 663,744 638,756 541,758 542,777 "/>
  <polygon class="fil7" points="514,1093 497,760 479,760 500,1072 502,1094 "/>
  <polygon class="fil12" points="93,1089 77,772 52,772 75,1091 75,1099 94,1100 "/>
  <polygon class="fil13" points="695,728 699,1129 713,1129 713,1105 713,1091 713,718 "/>
  <polygon class="fil7" points="699,1129 695,728 687,731 690,1093 690,1106 690,1129 "/>
  <path class="fil14" d="M542 777l0 0 0 0 0 0zm-3 103l131 1 2 -142 -9 5 0 25 -1 104 -114 -1 -5 -96 0 0 0 0 -1 -19 -9 0 7 121z"/>
  <polygon class="fil15" points="612,739 638,756 663,744 672,739 687,731 695,728 713,718 1012,570 1036,559 1047,553 1185,210 1242,65 1258,26 1493,573 1544,607 1552,588 1501,561 1264,4 1252,1 1030,529 1031,543 "/>
  <polygon class="fil16" points="638,756 612,739 1,758 5,774 52,772 77,772 479,760 497,760 532,759 541,758 541,758 "/>
  <polygon class="fil17" points="1,758 612,739 612,706 1,730 "/>
  <polygon class="fil18" points="612,706 612,739 1031,543 1031,536 1031,529 "/>
  <polygon class="fil19" points="612,706 1030,529 1031,529 1031,529 464,566 464,566 1,730 "/>
  <polygon class="fil20" points="1334,638 1166,639 1173,662 1329,658 "/>
  <path class="fil8" d="M1166 639l168 -1 14 0 6 -14 -34 -1 5 -217 -159 -2 9 222 -20 -1 6 13 5 0zm140 -25l-116 1 -4 -96 -2 -55 0 -8 -2 -40 128 1 -1 37 0 7 -1 60 -2 93z"/>
  <polygon class="fil21" points="1186,518 1308,520 1309,460 1184,463 "/>
  <polygon class="fil8" points="1184,463 1309,460 1309,453 1184,455 "/>
  <polygon class="fil21" points="1184,455 1309,453 1310,416 1182,415 "/>
  <polygon class="fil22" points="1325,407 1448,577 1452,531 1242,65 1185,210 "/>
  <polygon class="fil23" points="1452,531 1448,576 1448,577 1468,603 1469,575 "/>
  <polygon class="fil24" points="1452,531 1469,575 1468,603 1468,607 1544,607 1493,573 1258,26 1242,65 "/>
  <path class="fil25" d="M1031 529l222 -528 -528 81 -91 170 71 -33 15 -31 21 0 209 54 -107 257 -21 0 -91 -268 -112 257 -17 5 -25 -1 -70 -4 -43 80 566 -38zm-292 -244l56 169 -148 5 73 -173 19 -1z"/>
  <polygon class="fil26" points="843,498 950,241 740,187 "/>
  <path class="fil27" d="M794 454l-56 -169 -19 1 -73 173 148 -5zm-70 -149l53 143 -21 0 -92 2 50 -121 9 -25z"/>
  <polygon class="fil28" points="777,449 724,305 715,330 756,449 "/>
  <polygon class="fil29" points="731,230 822,498 843,498 740,187 719,187 705,218 577,490 602,491 726,214 "/>
  <polygon class="fil30" points="619,486 731,230 726,214 602,491 "/>
  <polygon class="fil31" points="577,490 705,218 633,251 507,486 "/>
  <path class="fil32" d="M713 718l-1 373 225 5 101 -3 -27 -523 -299 148zm258 153l-134 3 -6 -211 138 -5 1 213z"/>
  <polygon class="fil32" points="690,1093 687,731 672,739 669,881 539,880 532,759 497,760 514,1093 "/>
  <polygon class="fil4" points="938,1096 713,1091 713,1105 "/>
  <path class="fil33" d="M1325 407l-5 217 34 1 -6 14 -14 0 -6 20 -156 4 -7 -23 -5 0 -6 -13 20 1 -9 -222 159 2zm-283 311l398 -4 8 -136 -122 -171 -141 -197 -138 343 -11 6c3,53 5,106 7,159z"/>
  <polygon class="fil1" points="1055,1093 1155,1094 1145,772 1348,771 1335,1091 1418,1090 1440,735 1042,740 "/>
  <polygon class="fil33" points="1055,1093 1155,1094 1145,772 1157,772 1348,771 1335,1091 1418,1090 1440,735 1042,740 "/>
  <polygon class="fil7" points="1322,791 1166,791 1174,1093 1176,1093 1169,795 1322,795 "/>
  <polygon class="fil1" points="279,1311 307,1311 442,1129 400,1126 "/>
  <polygon class="fil1" points="140,1299 171,1298 190,1273 171,1272 173,1259 203,1255 224,1224 202,1222 203,1212 240,1204 259,1180 236,1178 236,1163 273,1157 302,1118 260,1115 "/>
  <polygon class="fil1" points="236,1163 352,1173 344,1187 236,1178 "/>
  <polygon class="fil1" points="203,1212 323,1222 317,1232 316,1233 202,1222 "/>
  <polygon class="fil1" points="173,1259 295,1269 288,1281 171,1272 171,1271 "/>
  <polygon class="fil1" points="173,1259 203,1255 300,1260 295,1269 "/>
  <polygon class="fil1" points="203,1212 240,1204 330,1211 323,1222 "/>
  <polygon class="fil1" points="236,1163 273,1157 358,1165 352,1173 "/>
  <polygon class="fil34" points="224,1224 202,1222 203,1212 240,1204 259,1180 236,1178 236,1163 273,1157 302,1118 260,1115 260,1115 140,1299 171,1298 190,1273 171,1272 173,1259 203,1255 "/>
  <polygon class="fil34" points="400,1126 279,1311 307,1311 442,1129 "/>
  <polygon class="fil2" points="295,1269 173,1259 171,1271 171,1272 190,1273 288,1281 "/>
  <polygon class="fil35" points="173,1259 295,1269 300,1260 203,1255 "/>
  <polygon class="fil2" points="224,1224 316,1233 317,1232 323,1222 203,1212 202,1222 "/>
  <polygon class="fil35" points="203,1212 323,1222 330,1211 240,1204 "/>
  <polygon class="fil2" points="259,1180 344,1187 352,1173 236,1163 236,1178 "/>
  <polygon class="fil35" points="236,1163 352,1173 358,1165 273,1157 "/>
  <polygon class="fil1" points="139,1120 139,1122 164,1248 183,1215 183,1213 181,1123 "/>
  <polygon class="fil1" points="691,1165 706,1300 729,1300 739,1169 "/>
  <polygon class="fil1" points="1036,1149 1042,1188 1064,1188 1063,1148 "/>
  <polygon class="fil1" points="1573,1114 1583,1232 1612,1217 1612,1215 1618,1111 "/>
  <polygon class="fil1" points="5,1254 154,1266 164,1248 162,1241 "/>
  <polygon class="fil1" points="213,1239 317,1232 300,1260 203,1255 "/>
  <polygon class="fil1" points="330,1280 667,1331 1556,1248 1583,1232 1582,1211 1064,1180 1064,1188 1042,1188 1041,1179 736,1203 729,1300 706,1300 696,1206 369,1227 "/>
  <polygon class="fil36" points="154,1266 164,1248 162,1241 25,1253 "/>
  <polygon class="fil36" points="203,1255 300,1260 317,1232 316,1233 316,1233 213,1239 "/>
  <polygon class="fil36" points="369,1227 327,1284 667,1331 1716,1233 1651,1218 1582,1211 1064,1180 1064,1188 1042,1188 1041,1179 736,1203 729,1300 706,1300 696,1206 "/>
  <polygon class="fil37" points="183,1213 181,1123 139,1120 139,1122 162,1241 164,1248 183,1215 "/>
  <polygon class="fil37" points="691,1165 696,1206 706,1300 729,1300 736,1203 739,1169 "/>
  <polygon class="fil37" points="1036,1149 1041,1179 1042,1188 1064,1188 1064,1180 1063,1148 "/>
  <polygon class="fil37" points="1573,1114 1582,1211 1583,1239 1609,1238 1612,1215 1618,1111 "/>
  <polygon class="fil1" points="1012,570 1000,576 1030,1092 1040,1092 "/>
  <polygon class="fil7" points="1012,571 1000,576 1023,981 1025,1009 1029,1086 1030,1092 1039,1092 1039,1085 1035,1007 1033,981 1022,764 "/>
  <polygon class="fil18" points="1391,237 1389,298 1435,406 1445,244 1450,238 1459,235 1462,226 1450,222 1393,216 1379,217 1380,227 1388,230 "/>
  <path class="fil6" d="M1389 298l2 -60 -2 -8 -8 -3 -1 -10 14 -1 57 5 12 4 -3 10 -8 3 -5 6 -10 163 8 20 12 -182 11 -1 8 -24c0,-1 0,-1 0,-2 0,-3 -2,-6 -6,-7l-97 -9c-3,0 -6,2 -7,6 0,1 0,2 0,2l6 25 0 0 8 3 -1 37 10 24z"/>
 </g>
</svg>
