<?xml version="1.0" encoding="UTF-8"?>
<!DOCTYPE svg PUBLIC "-//W3C//DTD SVG 1.1//EN" "http://www.w3.org/Graphics/SVG/1.1/DTD/svg11.dtd">
<!-- Creator: CorelDRAW 2020 (64-Bit) -->
<svg xmlns="http://www.w3.org/2000/svg" xml:space="preserve" width="507px" height="507px" version="1.1" style="shape-rendering:geometricPrecision; text-rendering:geometricPrecision; image-rendering:optimizeQuality; fill-rule:evenodd; clip-rule:evenodd"
viewBox="0 0 507 507"
 xmlns:xlink="http://www.w3.org/1999/xlink"
 xmlns:xodm="http://www.corel.com/coreldraw/odm/2003">
 <defs>
  <style type="text/css">
   <![CDATA[
    .fil0 {fill:#FEFEFE}
    .fil1 {fill:#E0E3F5}
   ]]>
  </style>
 </defs>
 <g id="Layer_x0020_1">
  <metadata id="CorelCorpID_0Corel-Layer"/>
  <g id="_2538483937968">
   <circle class="fil0" cx="253" cy="254" r="254"/>
   <path class="fil1" d="M35 331c-4,8 -9,6 -3,25 8,23 23,46 43,59 7,4 13,9 20,14 20,13 23,12 47,21 5,2 14,8 16,0l1 -7c9,-3 14,3 24,6 16,5 33,12 48,17 12,3 17,2 26,-4 13,-8 15,-1 27,-5 7,-2 17,-5 22,-10 5,-4 12,-16 12,-20 1,-8 -10,-10 -15,-17 -5,-6 -5,-12 -17,-15 -9,-3 -20,-2 -29,-1 -8,1 -17,8 -25,6 -7,-2 -15,-10 -23,-9 -4,0 -6,3 -12,4 -7,0 -8,0 -13,4 -5,4 -12,11 -21,12 -10,1 -19,-1 -26,-6 -5,-3 -8,-7 -14,-11 -2,-1 -4,-2 -5,-3 -16,-10 -6,-34 1,-47 8,-15 4,-24 -9,-32 -4,-2 -7,-4 -10,-6 -6,-4 -13,-9 -18,-14 -4,-4 -12,-12 -11,-21 0,-4 3,-9 5,-11 5,-4 6,-4 2,-10 -7,-8 18,-18 18,-45 0,-5 0,-10 -3,-13 -4,-4 -7,-1 -12,0 -9,3 -16,6 -20,13 -3,5 -2,8 -2,15 0,5 -2,8 -3,13 -2,11 2,11 -2,30 -2,6 0,8 -2,14 -5,11 -1,33 1,43 1,5 2,10 -1,13 -4,4 -8,2 -13,1z"/>
   <path class="fil1" d="M447 418c6,-4 23,-30 27,-39 6,-12 11,-21 16,-34 1,-4 3,-9 4,-13l-1 -2c0,-3 1,-3 2,-5 0,-2 0,-3 0,-5 0,-2 1,-2 1,-3 1,-3 -1,-4 0,-8 1,-4 2,-2 1,-7 0,-7 4,-19 1,-26 -2,-4 0,-5 -1,-8 -5,-1 -2,6 -4,16 -1,4 0,6 -2,9 -2,2 -3,4 -5,6 -5,7 -2,9 -4,17 -2,9 -19,9 -22,10 -4,2 -7,0 -9,2 -4,3 -5,10 -3,16 3,6 7,5 4,16 -1,5 -5,12 -5,18 6,2 8,0 12,0 0,5 -4,15 -7,18 -2,2 -11,11 -15,9 -2,-3 0,-4 -2,-7 -4,-5 -2,0 -2,-7 0,-4 -2,-3 -2,-8 0,-4 1,-6 0,-10 -3,-10 -15,-10 -25,-14 -25,-9 -23,-8 -44,4 -10,5 -23,7 -29,10 -4,2 -9,5 -12,8 -4,3 -6,6 -7,12 -4,15 10,15 13,25 1,5 -3,11 -5,14 -2,4 -2,11 -1,17 2,7 6,7 9,11 0,4 -2,3 -3,7 -1,4 -2,4 -6,4 -10,2 -12,-3 -17,-2 -4,0 -3,2 -9,0 -3,-1 -5,-2 -9,-1 -3,1 -9,8 -8,13 0,1 4,4 5,5 6,6 6,-1 26,-1 9,0 27,-4 34,-6l17 -3c12,-3 19,-4 29,-12 10,-8 13,-8 23,-18 2,-2 3,-3 5,-5l16 -15c1,-1 5,-6 9,-8 1,-1 0,-1 2,0z"/>
   <path class="fil1" d="M93 159l-2 -2c7,-1 20,-11 26,-15 6,-5 15,-13 18,-23 2,-6 5,-12 4,-16 -1,-4 -6,-10 -9,-12 -16,-11 -47,17 -59,27 -8,7 -9,9 -9,22 0,9 0,9 -3,17 -3,7 -3,11 5,13 5,1 13,-1 18,-3 5,-2 10,-4 12,-9z"/>
   <path class="fil1" d="M464 171c0,3 -2,4 2,5 3,-4 0,-12 -1,-13 0,-2 0,-3 -1,-5l-5 -16c-5,-14 -7,-15 -14,-28 -9,-15 -13,-19 -25,-27 -3,-2 -3,-3 -6,-4 -5,-2 -7,-8 -14,-8 1,5 6,13 9,18 3,7 11,7 15,12 5,7 -6,8 -11,12 -6,4 -3,14 -5,21 -1,2 -1,3 -2,5 0,2 0,4 -1,6 -2,5 -1,6 1,10 4,9 5,18 24,12 17,-6 16,-1 20,1 3,1 9,0 13,0z"/>
   <path class="fil1" d="M40 243c-2,0 -1,1 -3,1 -5,-11 -4,-13 -4,-22 0,-8 -2,-15 -11,-16 -16,-2 -21,22 -21,33 0,6 0,13 0,18l3 20c1,4 1,7 3,11 2,5 2,8 5,13 3,5 6,4 11,8 5,3 8,5 13,0 3,-4 3,-9 3,-15 0,-4 1,-4 1,-8l0 -28c0,-5 3,-13 1,-17z"/>
   <path class="fil1" d="M168 461c-12,4 -17,-1 -21,4 -9,12 13,23 22,25 10,3 36,9 43,-1 4,-6 -1,-12 -6,-16 -9,-8 -30,-15 -37,-13z"/>
   <path class="fil1" d="M450 177c-6,2 -10,-1 -12,4 0,1 -1,3 -1,5 -2,6 0,12 2,19 1,3 2,5 4,7l7 5c3,3 11,6 16,6 8,0 8,-5 11,-11 6,-10 -2,-24 -9,-31 -4,-4 -13,-5 -18,-4z"/>
   <path class="fil1" d="M155 327c-8,-2 -19,3 -23,7 -6,6 -3,20 0,25 3,4 6,4 12,3 6,-1 2,-2 6,-5 4,-3 2,-8 3,-12 0,-2 1,-1 1,-3 0,-3 -1,-5 0,-7 1,-4 2,-3 0,-7z"/>
   <path class="fil1" d="M114 230c0,0 0,0 0,0z"/>
  </g>
 </g>
</svg>
