<?xml version="1.0" encoding="UTF-8"?>
<!DOCTYPE svg PUBLIC "-//W3C//DTD SVG 1.1//EN" "http://www.w3.org/Graphics/SVG/1.1/DTD/svg11.dtd">
<!-- Creator: CorelDRAW 2020 (64-Bit) -->
<svg xmlns="http://www.w3.org/2000/svg" xml:space="preserve" width="2009px" height="225px" version="1.1" style="shape-rendering:geometricPrecision; text-rendering:geometricPrecision; image-rendering:optimizeQuality; fill-rule:evenodd; clip-rule:evenodd"
viewBox="0 0 2009 225"
 xmlns:xlink="http://www.w3.org/1999/xlink"
 xmlns:xodm="http://www.corel.com/coreldraw/odm/2003">
 <defs>
  <style type="text/css">
   <![CDATA[
    .fil0 {fill:#5659C0}
   ]]>
  </style>
 </defs>
 <g id="Layer_x0020_1">
  <metadata id="CorelCorpID_0Corel-Layer"/>
  <path class="fil0" d="M620 1c-252,3 -440,15 -533,29 -56,8 -78,16 -85,27 -4,6 -3,12 0,20 1,2 2,4 3,6 11,25 33,61 148,86 54,12 129,20 215,28 95,8 202,14 307,19 201,9 395,16 622,2 227,-13 487,-46 614,-74 51,-11 81,-22 92,-31l4 -5c7,-13 -17,-24 -64,-36 -90,-21 -263,-41 -508,-54 -170,-9 -374,-15 -567,-17 -86,-1 -169,-1 -247,0z"/>
 </g>
</svg>
