<?xml version="1.0" encoding="UTF-8"?>
<!DOCTYPE svg PUBLIC "-//W3C//DTD SVG 1.1//EN" "http://www.w3.org/Graphics/SVG/1.1/DTD/svg11.dtd">
<!-- Creator: CorelDRAW 2020 (64-Bit) -->
<svg xmlns="http://www.w3.org/2000/svg" xml:space="preserve" width="1886px" height="165px" version="1.1" style="shape-rendering:geometricPrecision; text-rendering:geometricPrecision; image-rendering:optimizeQuality; fill-rule:evenodd; clip-rule:evenodd"
viewBox="0 0 1886 165"
 xmlns:xlink="http://www.w3.org/1999/xlink"
 xmlns:xodm="http://www.corel.com/coreldraw/odm/2003">
 <defs>
  <style type="text/css">
   <![CDATA[
    .fil1 {fill:#081351}
    .fil0 {fill:#16112A}
    .fil2 {fill:#718EFF}
    .fil3 {fill:#ABB8FF}
   ]]>
  </style>
 </defs>
 <g id="Layer_x0020_1">
  <metadata id="CorelCorpID_0Corel-Layer"/>
  <path class="fil0" d="M675 143c39,-12 62,-24 77,-33 15,-9 22,-16 22,-20 1,-4 -4,-6 -15,-11 -11,-4 -28,-11 -36,-15 -4,-2 -6,-2 -9,-3 -5,5 -26,14 -59,25 -35,13 -83,29 -105,38 -22,9 -18,12 10,14 20,2 51,3 114,4 1,0 1,0 2,0z"/>
  <path class="fil1" d="M752 110c-15,9 -38,22 -77,33 -1,0 -1,0 -2,0 28,0 63,0 105,-1 137,-2 357,-8 545,-16 188,-8 343,-18 424,-24 82,-6 90,-8 89,-10 -1,-3 -10,-6 -58,-13 -49,-7 -137,-18 -232,-28 -95,-10 -197,-19 -297,-26 -100,-7 -198,-12 -319,-13 -79,-1 -169,0 -268,4 -52,2 -108,4 -166,7 -169,9 -363,24 -427,32 -64,7 1,7 69,6 68,-1 140,-1 205,-2 65,-1 124,-2 181,-3 13,0 25,0 37,-1 43,-1 82,-1 109,-1 34,0 48,2 44,7 0,0 0,1 -1,1 3,0 5,1 9,3 8,3 25,10 36,15 11,4 16,7 15,11 -1,4 -7,10 -22,20z"/>
  <path class="fil0" d="M199 60c89,-10 263,-22 406,-27 5,0 11,0 16,-1 136,-5 251,-7 363,-4 111,4 214,10 330,18 116,8 241,23 321,31 80,8 124,13 149,22 48,-4 53,-5 52,-7 -1,-3 -10,-6 -58,-13 -49,-7 -137,-18 -232,-28 -95,-10 -197,-19 -297,-26 -100,-7 -198,-12 -319,-13 -79,-1 -169,0 -268,4 -52,2 -108,4 -166,7 -169,9 -363,24 -427,32 -64,7 1,7 69,6 17,0 35,0 52,0 3,0 5,-1 8,-1z"/>
  <path class="fil2" d="M351 72c58,0 126,-1 171,-1 0,0 1,0 1,0 79,-1 121,-1 97,9 -24,10 -115,30 -162,47 -29,10 -41,19 -28,26 8,4 27,8 60,10 82,5 250,1 493,-9 5,0 10,0 16,-1 241,-10 548,-25 712,-38 168,-14 186,-25 172,-37 -14,-12 -60,-24 -189,-38 -129,-14 -341,-30 -558,-37 -146,-5 -294,-5 -434,-3 -69,1 -71,1 -198,5 -128,5 -356,29 -437,39 -81,10 -77,18 -41,23 36,6 63,6 327,3zm174 -16c-35,1 -125,3 -190,3 -4,0 -140,1 -144,1 -18,0 -35,0 -52,0 -68,1 -133,0 -69,-6 132,-13 277,-22 429,-30 58,-3 112,-7 164,-8 100,-3 189,-4 268,-4 121,1 219,6 319,13 100,7 202,16 297,26 95,10 183,21 232,28 49,7 58,11 58,13 0,2 -5,4 -52,7 -10,1 -22,2 -37,3 -82,6 -237,16 -424,24 -188,8 -408,14 -545,16 -43,1 -77,1 -105,1 -62,0 -94,-2 -114,-4 -29,-2 -32,-5 -10,-14 22,-9 70,-26 105,-38 33,-12 54,-20 59,-25 0,0 1,-1 1,-1 4,-5 -10,-6 -44,-7 -27,0 -66,0 -109,1 -12,0 -2,0 -37,1z"/>
  <path class="fil3" d="M1031 85c-50,-4 42,-2 42,-3 0,-1 9,0 -39,-3 -71,0 -194,-4 -204,-5 -10,-1 140,-5 218,-5 78,0 151,5 141,5 -10,0 -64,2 -97,3 39,1 161,5 154,5 -7,0 -86,4 -140,5 18,1 -47,1 -47,2 0,1 73,2 69,2 54,0 177,2 177,5 0,3 -124,5 -179,5 -55,0 -104,-4 -110,-5 -6,0 12,-1 17,-2 -54,0 -114,-3 -117,-5 -3,-1 62,-4 116,-5z"/>
 </g>
</svg>
