<?xml version="1.0" encoding="UTF-8"?>
<!DOCTYPE svg PUBLIC "-//W3C//DTD SVG 1.1//EN" "http://www.w3.org/Graphics/SVG/1.1/DTD/svg11.dtd">
<!-- Creator: CorelDRAW 2020 (64-Bit) -->
<svg xmlns="http://www.w3.org/2000/svg" xml:space="preserve" width="275px" height="90px" version="1.1" style="shape-rendering:geometricPrecision; text-rendering:geometricPrecision; image-rendering:optimizeQuality; fill-rule:evenodd; clip-rule:evenodd"
viewBox="0 0 275 90"
 xmlns:xlink="http://www.w3.org/1999/xlink"
 xmlns:xodm="http://www.corel.com/coreldraw/odm/2003">
 <defs>
  <style type="text/css">
   <![CDATA[
    .fil0 {fill:#04020F}
    .fil2 {fill:#140D3D}
    .fil1 {fill:#2E207F}
    .fil3 {fill:#332A8E}
   ]]>
  </style>
 </defs>
 <g id="Layer_x0020_1">
  <metadata id="CorelCorpID_0Corel-Layer"/>
  <g id="_2538509416144">
   <polygon class="fil0" points="119,71 121,48 112,39 108,35 94,20 88,14 85,21 78,38 78,39 66,67 64,68 "/>
   <polygon class="fil1" points="121,48 225,70 267,63 215,42 174,25 160,15 140,0 88,14 94,20 "/>
   <polygon class="fil2" points="225,70 122,48 121,48 119,71 216,77 222,77 226,75 274,75 267,63 "/>
   <polygon class="fil3" points="72,53 0,79 77,83 211,90 227,84 274,75 226,75 222,77 219,77 216,77 119,71 64,68 66,67 "/>
  </g>
 </g>
</svg>
