<?xml version="1.0" encoding="UTF-8"?>
<!DOCTYPE svg PUBLIC "-//W3C//DTD SVG 1.1//EN" "http://www.w3.org/Graphics/SVG/1.1/DTD/svg11.dtd">
<!-- Creator: CorelDRAW 2020 (64-Bit) -->
<svg xmlns="http://www.w3.org/2000/svg" xml:space="preserve" width="3606px" height="438px" version="1.1" style="shape-rendering:geometricPrecision; text-rendering:geometricPrecision; image-rendering:optimizeQuality; fill-rule:evenodd; clip-rule:evenodd"
viewBox="0 0 3606 438"
 xmlns:xlink="http://www.w3.org/1999/xlink"
 xmlns:xodm="http://www.corel.com/coreldraw/odm/2003">
 <defs>
  <style type="text/css">
   <![CDATA[
    .fil0 {fill:#271363}
    .fil1 {fill:#382082}
   ]]>
  </style>
 </defs>
 <g id="Layer_x0020_1">
  <metadata id="CorelCorpID_0Corel-Layer"/>
  <g id="_2538529799744">
   <polygon class="fil0" points="130,236 99,225 129,230 128,226 98,220 98,209 127,217 101,67 42,293 76,285 78,290 40,302 38,311 83,293 88,301 35,321 5,440 179,440 "/>
   <polygon class="fil0" points="732,272 753,270 733,269 734,267 754,268 754,262 735,263 759,192 787,308 765,301 763,304 788,313 789,318 760,305 756,308 791,323 822,439 683,439 "/>
   <polygon class="fil0" points="915,325 894,321 914,322 913,320 893,318 893,313 912,316 894,242 857,357 879,351 881,354 855,361 854,366 884,355 887,359 852,371 833,439 944,439 "/>
   <polygon class="fil0" points="3096,304 3116,301 3097,301 3097,299 3117,299 3118,293 3098,295 3120,222 3152,339 3130,333 3128,335 3153,344 3155,349 3125,336 3121,340 3156,354 3181,442 3059,442 "/>
   <polygon class="fil1" points="78,169 56,158 77,163 77,159 55,154 55,143 76,151 57,1 14,226 39,219 40,223 12,236 10,245 44,227 47,235 8,255 -23,439 121,440 "/>
   <polygon class="fil1" points="590,240 634,235 592,234 593,230 636,231 638,219 596,222 648,69 707,318 660,303 657,308 709,329 712,339 650,311 642,318 714,350 736,439 524,439 "/>
   <polygon class="fil1" points="799,304 819,302 800,302 800,300 821,300 821,294 802,296 826,224 854,341 832,334 830,336 855,346 856,350 827,337 823,341 857,356 880,440 752,440 "/>
   <polygon class="fil1" points="3575,306 3545,295 3574,301 3573,296 3543,291 3543,280 3572,288 3546,138 3488,363 3522,356 3524,360 3485,373 3483,382 3528,364 3533,372 3480,392 3468,438 3588,438 3605,439 "/>
   <polygon class="fil1" points="3010,281 3041,271 3011,275 3012,271 3043,267 3044,256 3014,262 3048,112 3095,343 3061,333 3059,338 3097,353 3099,362 3054,341 3049,349 3101,372 3116,441 2968,440 "/>
   <polygon class="fil0" points="596,272 571,267 595,269 594,266 569,265 569,258 593,261 570,170 524,312 552,306 554,309 522,319 521,324 558,311 562,315 519,331 483,440 638,440 "/>
   <polygon class="fil1" points="345,200 304,192 343,194 342,190 302,187 301,176 340,182 303,34 229,265 274,254 277,259 226,275 223,284 283,262 290,269 219,294 173,441 398,440 "/>
   <polygon class="fil1" points="420,183 464,179 423,177 424,173 467,175 469,163 427,165 485,13 535,266 488,249 485,253 537,277 539,287 478,256 470,263 541,298 578,440 323,441 "/>
   <polygon class="fil0" points="419,242 394,237 418,239 417,236 392,234 392,227 416,231 393,139 347,282 375,276 377,278 345,288 344,294 381,281 385,285 341,301 296,439 458,441 "/>
   <polygon class="fil0" points="3489,325 3469,321 3489,322 3488,320 3468,318 3468,313 3487,316 3469,242 3432,357 3454,351 3456,354 3430,361 3429,366 3459,355 3462,359 3427,371 3403,441 3514,439 "/>
   <polygon class="fil0" points="2939,349 2953,346 2939,347 2940,345 2954,345 2954,341 2941,342 2956,293 2977,372 2962,368 2961,369 2978,376 2979,379 2959,370 2956,373 2980,382 2996,442 2914,442 "/>
  </g>
 </g>
</svg>
